# xmcd
#
# Track frame offsets: 
#        150
#        18182
#        32792
#        50092
#        64116
#        77698
#        109125
#        132296
#        152670
#        166802
#
# Disc length: 2399 seconds
#
# Revision: 0
# Processed by: cddbd v1.5.2PL0 Copyright (c) Steve Scherf et al.
# Submitted via: ExactAudioCopyFreeDBPlugin 1.0
#
DISCID=79095d0a
DTITLE=Various Artist - Texas Loves It's Blues
DYEAR=2005
DGENRE=Blues
TTITLE0=Guitar Shorty - Old School
TTITLE1=T-Bone Walker - Good Boy
TTITLE2=W.C. Clark - Ain't Lost Nothin'
TTITLE3=Delbert McClinton - Nothin' Lasts Forever
TTITLE4=Pee Wee Crayton - Blues at Daybreak
TTITLE5=Albert Collins - Lights on but Nobody's Home
TTITLE6=Johnny Copeland - Rock Me Baby
TTITLE7=Marcia Ball - Give It Up
TTITLE8=Jimmie Vaughan - In The Middle Of The Night
TTITLE9=Lightnin’ Hopkins - Trouble In Mind
EXTD=
EXTT0=
EXTT1=
EXTT2=
EXTT3=
EXTT4=
EXTT5=
EXTT6=
EXTT7=
EXTT8=
EXTT9=
PLAYORDER=
